<svg xmlns="http://www.w3.org/2000/svg" version="1.1" xmlns:xlink="http://www.w3.org/1999/xlink" xmlns:svgjs="http://svgjs.dev/svgjs" width="1000" height="1000" viewBox="0 0 1000 1000"><rect width="1000" height="1000" fill="#000000"></rect><g transform="matrix(0.7,0,0,0.7,149.57575757575756,363.11223615421875)"><svg viewBox="0 0 396 155" data-background-color="#010c80" preserveAspectRatio="xMidYMid meet" height="391" width="1000" xmlns="http://www.w3.org/2000/svg" xmlns:xlink="http://www.w3.org/1999/xlink"><g id="tight-bounds" transform="matrix(1,0,0,1,0.2400000000000091,0.021386174994830753)"><svg viewBox="0 0 395.52 154.95722765001034" height="154.95722765001034" width="395.52"><g><svg viewBox="0 0 397.4975999999999 155.73201378826036" height="154.95722765001034" width="395.52"><g><rect width="397.4975999999999" height="4.769865897039445" x="0" y="85.58346871898735" fill="#ffffff" opacity="1" stroke-width="0" stroke="transparent" fill-opacity="1" class="rect-o-0" data-fill-palette-color="secondary" rx="1%" id="o-0" data-palette-color="#4b91f1"></rect></g><g transform="matrix(1,0,0,1,0.9887999999999693,102.83989455592062)"><svg viewBox="0 0 395.52 52.892119232339724" height="52.892119232339724" width="395.52"><g><svg viewBox="0 0 395.52 52.892119232339724" height="52.892119232339724" width="395.52"><g><svg viewBox="0 0 395.52 52.892119232339724" height="52.892119232339724" width="395.52"><g transform="matrix(1,0,0,1,0,0)"><svg width="395.52" viewBox="3.549999952316284 -32.75 244.87998962402344 32.75" height="52.892119232339724" data-palette-color="#77d4fc"><path d="M18.2-30.2L19.5-32.75 22.65-32.75Q17.65-22.75 13.7-16.85L13.7-16.85Q15.2-14.6 17.5-10.4L17.5-10.4 23 0 19.65 0Q14.05-10.95 11.35-15.25L11.35-15.25 6.3-14.75 6.3 0 3.55 0 3.55-32.75 6.3-32.75 6.3-17.3 11.15-17.8Q14.7-23.2 18.2-30.2L18.2-30.2ZM44.85-10.65L30.5-10.65 30.5-13.35 44.85-13.35 44.85-10.65ZM59.6 0L53 0 53-32.75 59.7-32.75Q63.4-32.75 65.77-32.02 68.15-31.3 69.8-29.45 71.45-27.6 72.17-24.43 72.9-21.25 72.9-16.38 72.9-11.5 72.09-8.28 71.3-5.05 69.55-3.25 67.8-1.45 65.45-0.73 63.1 0 59.6 0L59.6 0ZM65.57-3.6Q67.7-4.7 68.82-7.73 69.95-10.75 69.95-16.38 69.95-22 68.84-25.03 67.75-28.05 65.65-29.15 63.55-30.25 59.7-30.25L59.7-30.25 55.75-30.25 55.75-2.5 59.6-2.5Q63.45-2.5 65.57-3.6ZM96.29 0L79.09 0 79.09-32.75 96.14-32.75 96.14-30.3 81.84-30.3 81.84-17.9 94.79-17.9 94.79-15.45 81.84-15.45 81.84-2.45 96.29-2.45 96.29 0ZM107.29-2.55L120.94-2.55 120.94 0 104.54 0 104.54-32.75 107.29-32.75 107.29-2.55ZM144.49 0L130.54 0 130.54-2.5 136.19-2.5 136.19-30.25 130.54-30.25 130.54-32.75 144.49-32.75 144.49-30.25 138.94-30.25 138.94-2.5 144.49-2.5 144.49 0ZM160.19 0L152.14-32.75 155.09-32.75 162.34-2.45 162.84-2.45 170.04-32.75 172.94-32.75 164.89 0 160.19 0ZM196.28 0L179.08 0 179.08-32.75 196.13-32.75 196.13-30.3 181.83-30.3 181.83-17.9 194.78-17.9 194.78-15.45 181.83-15.45 181.83-2.45 196.28-2.45 196.28 0ZM213.38-13.45L213.38-13.45Q210.68-13.3 209.88-13.3L209.88-13.3 205.78-13.3 205.78 0 203.03 0 203.03-32.75 210.38-32.75Q216.48-32.75 219.33-30.65 222.18-28.55 222.18-23.25L222.18-23.25Q222.18-19.7 220.76-17.55 219.33-15.4 216.18-14.05L216.18-14.05Q219.58-7.6 222.38 0L222.38 0 219.38 0Q216.63-7.3 213.38-13.45ZM210.28-30.25L210.28-30.25 205.78-30.25 205.78-15.8 209.78-15.8Q214.38-15.8 216.83-17.48 219.28-19.15 219.28-23.25 219.28-27.35 217.11-28.8 214.93-30.25 210.28-30.25ZM248.43-32.75L238.78-14.15 238.78 0 236.08 0 236.08-14.15 226.43-32.75 229.73-32.75 237.38-17 237.48-17 245.13-32.75 248.43-32.75Z" opacity="1" transform="matrix(1,0,0,1,0,0)" fill="#ffffff" class="undefined-text-0" data-fill-palette-color="primary" id="text-0"></path></svg></g></svg></g></svg></g></svg></g><g transform="matrix(1,0,0,1,130.6888419591592,0)"><svg viewBox="0 0 136.11991608168154 73.09690877909351" height="73.09690877909351" width="136.11991608168154"><g><svg xmlns="http://www.w3.org/2000/svg" xmlns:xlink="http://www.w3.org/1999/xlink" version="1.1" x="8.000000000000007" y="0" viewBox="12.61500072479248 27.25 74.77000427246094 45.5" enable-background="new 0 0 100 100" xml:space="preserve" height="73.09690877909351" width="120.11991608168152" class="icon-icon-0" data-fill-palette-color="accent" id="icon-0"><g fill="#4b91f1" data-fill-palette-color="accent"><path fill="#ffffff" d="M35.551 64.875c0 4.35-3.531 7.875-7.889 7.875-4.356 0-7.889-3.525-7.889-7.875S23.306 57 27.662 57C32.02 57 35.551 60.525 35.551 64.875zM87.385 53.58v8.46c0 1.56-1.271 2.83-2.83 2.83h-1.3c0-5.65-4.59-10.23-10.24-10.23s-10.24 4.58-10.24 10.23H37.915c0-5.65-4.59-10.23-10.25-10.23-5.67 0-10.26 4.58-10.26 10.23h-1.95c-1.561 0-2.84-1.271-2.84-2.83V50.58h36.149V28.67c0-0.72 0.54-1.32 1.24-1.4 0.06-0.02 0.12-0.02 0.18-0.02h12.561c1.56 0 3.439 1.12 4.18 2.49l7.51 13.91c0.74 1.37 2.53 2.96 3.98 3.541l6.34 2.52C86.205 50.28 87.385 52.03 87.385 53.58zM70.495 46.02l-7.03-12.78c-0.38-0.68-1.32-1.24-2.101-1.24h-6.6c-0.78 0-1.42 0.64-1.42 1.42v12.42c0 0.78 0.64 1.42 1.42 1.42h15C70.545 47.26 70.875 46.7 70.495 46.02zM50.005 27.25v0.02c0.06-0.02 0.12-0.02 0.18-0.02H50.005zM73.015 57c-4.35 0-7.875 3.525-7.875 7.875s3.525 7.875 7.875 7.875 7.875-3.525 7.875-7.875S77.364 57 73.015 57zM16.935 32.57V47.19l12.79-7.3L16.935 32.57zM31.745 41.05l-12.91 7.37h25.77L31.745 41.05zM18.945 31.42l12.79 7.33 12.85-7.33H18.945zM33.755 39.9l12.84 7.36V32.58L33.755 39.9z" data-fill-palette-color="accent"></path></g></svg></g></svg></g><g><rect width="54.15572195915922" height="4.769865897039445" y="67.32704288205406" x="266.80875804084076" fill="#ffffff" data-fill-palette-color="secondary"></rect><rect width="54.15572195915922" height="4.769865897039445" y="67.32704288205406" x="76.53311999999997" fill="#ffffff" data-fill-palette-color="secondary"></rect></g></svg></g><defs></defs></svg><rect width="395.52" height="154.95722765001034" fill="none" stroke="none" visibility="hidden"></rect></g></svg></g></svg>